<?xml version="1.0" encoding="utf-8"?>
<!-- Generator: Adobe Illustrator 21.0.0, SVG Export Plug-In . SVG Version: 6.00 Build 0)  -->
<svg version="1.1" id="Layer_1" xmlns="http://www.w3.org/2000/svg" xmlns:xlink="http://www.w3.org/1999/xlink" x="0px" y="0px"
	 viewBox="0 0 283.5 45.5" style="enable-background:new 0 0 283.5 45.5;" xml:space="preserve">
<path d="M12.8,5.2c5.2,0,10.5,3.5,10.5,13c0,5-1.2,8-3.4,10.3s-5.3,2.7-7.4,2.7H5.2v-26L12.8,5.2 M12.8,0H0v36.4h12.5
	c8.3,0,16-4.3,16-18.2C28.6,5.6,20.8,0,12.8,0L12.8,0z M76.5,33.4c-0.5,0.9-3.1,3.7-8.2,3.7c-6.6,0-9.5-3.7-9.5-7.9
	c0-4.7,2.6-6.9,9.2-8.6c5.5-1.4,7.6-2.1,7.6-4.4c0-2-1.6-3.7-5.4-3.7c-4.2,0-5.7,2.4-6.4,5.2l-4.4-1.6c0.9-4.5,4.5-8,10.7-8
	c6,0,10.7,2.8,10.7,10.1v18.2h-4.4v-3H76.5z M76,21.3c-0.4,0.7-1.2,1.6-6.8,3c-4.6,1.2-5.5,2.6-5.5,4.6c0,2.3,1.5,3.8,5,3.8
	c4.9,0,7.2-2.5,7.2-5.2v-6.2H76z M241.3,11.5V0h5.2v36.4h-5.2v-2.6c-0.5,0.9-3.6,3.4-7.5,3.4c-7.3,0-11.9-5.7-11.9-14.5
	c0-9.1,5.5-14.5,11.9-14.5C237.9,8,240.4,10.4,241.3,11.5z M241.3,19.2c0-3.2-2.4-6.5-6.7-6.5c-4.9,0-7.7,3.6-7.7,9.9s2.7,10,7.7,10
	c4.1,0,6.7-2.9,6.7-6V19.2z M253.5,26.1c0.8,4.3,3.2,6.7,7.4,6.7c4.2,0,6.2-1.7,6.2-3.9c0-2.5-1.6-3.3-7.8-5c-6.5-1.8-9.2-3.8-9.2-8
	c0-3.9,3.4-7.8,9.8-7.8c6.5,0,9.8,3.5,11,8l-4.4,1.2c-0.9-2.9-2.7-4.9-6.6-4.9c-3.5,0-5.2,1.7-5.2,3.4c0,2.1,1.2,2.8,7.9,4.7
	c7.1,2,9,4.3,9,8.5c0.1,3.8-3,8.2-10.7,8.2c-7.9,0-11.4-4.8-11.9-10L253.5,26.1z M56.2,22.6C56.2,13.5,51,8,43.8,8
	s-12.6,5.6-12.6,14.5S36.6,37,44.1,37c5.9,0,9.5-3.2,11.4-6.7l-4.2-2.2c-1.1,1.8-3,4.4-7.4,4.4c-5,0-7.5-3.8-7.6-8.5h19.9
	C56.2,24,56.2,22.6,56.2,22.6z M36.4,20.2c0.1-3.2,2.3-7.6,7.4-7.6c5.2,0,7.3,3.8,7.4,7.6H36.4z M193.9,22.6
	c0-9.1-5.2-14.5-12.5-14.5s-12.6,5.6-12.6,14.5s5.4,14.5,12.9,14.5c5.9,0,9.5-3.2,11.4-6.7l-4.2-2.2c-1.1,1.8-3,4.4-7.4,4.4
	c-5,0-7.5-3.8-7.6-8.5h19.9v-1.5C193.8,22.6,193.9,22.6,193.9,22.6z M174,20.2c0.1-3.2,2.3-7.6,7.4-7.6c5.2,0,7.3,3.8,7.4,7.6H174z
	 M154.9,8.8c-2.6,0-4.6,0.7-6,2.6V8.8h-5.2v27.5h5.2V20c0-4.1,2.7-6,6-6h2.2V8.8H154.9z M160.4,36.4h5.2V8.8h-5.2V36.4z M139.8,5.2
	V0h-26v36.4h5.2V22h20.8v-5.2H119V5.2H139.8z M165.5,0h-5.2v5.2h5.2V0z M209.3,8c-3.1,0-6.2,1.6-7.6,3.4V8.8h-5.2v27.5h5.2V19.1
	c0-3.9,2.7-6.3,6.6-6.3c4.1,0,5.8,2.5,5.8,7.1v16.6h5.2v-18C219.2,11.9,215.3,8,209.3,8z M274.4,31.2v5.2h5.2c0,2.9-2.3,5.2-5.2,5.2
	v3.9c5,0,9.1-4.1,9.1-9.1v-5.2H274.4z M96,8.8c-2.6,0-4.6,0.7-6,2.6V8.8h-5.2v27.5H90V20c0-4.1,2.7-6,6-6h2.2V8.8H96z"/>
</svg>
