<svg width="1884" height="721" viewBox="0 0 1884 721" fill="none" xmlns="http://www.w3.org/2000/svg">
<path d="M1026.66 662.318L780.629 532.989L896.87 416.528L1026.66 662.318Z" fill="#BDE1D5"/>
<ellipse cx="578" cy="285.5" rx="578" ry="285.5" fill="#BDE1D5"/>
<path d="M152.344 330.688C152.344 328.25 152.438 326.094 152.625 324.219C153 322.344 154.688 320.938 157.688 320C160.875 321.312 163.219 323.375 164.719 326.188C166.219 328.812 167.438 331.812 168.375 335.188C169.5 338.562 170.438 342.031 171.188 345.594C172.125 349.156 173.438 352.344 175.125 355.156C176.812 357.969 179.25 360.219 182.438 361.906C185.625 363.406 189.938 363.875 195.375 363.312C205.125 362.375 213.375 360.688 220.125 358.25C226.875 355.625 232.406 352.438 236.719 348.688C241.219 344.938 244.688 340.531 247.125 335.469C249.75 330.406 251.625 324.781 252.75 318.594C254.062 312.406 254.812 305.75 255 298.625C255.375 291.312 255.562 283.531 255.562 275.281C255.562 266.844 254.906 258.5 253.594 250.25C252.469 242 251.156 233.844 249.656 225.781C248.344 217.531 247.031 209.375 245.719 201.312C244.594 193.062 244.031 184.812 244.031 176.562C244.031 175.625 244.031 174.875 244.031 174.312C244.219 173.562 244.688 173.094 245.438 172.906C246.375 172.531 247.5 172.438 248.812 172.625C250.312 172.812 252.375 173.375 255 174.312C255.188 174.5 255.562 175.812 256.125 178.25C256.875 180.5 257.625 183.406 258.375 186.969C259.125 190.531 259.875 194.469 260.625 198.781C261.375 203.094 262.031 207.406 262.594 211.719C263.344 216.031 264 220.156 264.562 224.094C265.125 227.844 265.5 231.031 265.688 233.656C266.438 244.906 267.375 256.344 268.5 267.969C269.625 279.594 270.094 290.844 269.906 301.719C269.719 312.594 268.5 322.719 266.25 332.094C264.188 341.281 260.344 349.25 254.719 356C249.094 362.562 241.312 367.625 231.375 371.188C221.438 374.562 208.688 375.688 193.125 374.562C187.5 374.562 182.156 373.344 177.094 370.906C172.219 368.281 167.906 364.906 164.156 360.781C160.594 356.656 157.688 351.969 155.438 346.719C153.375 341.469 152.344 336.125 152.344 330.688ZM277.781 222.688C280.781 218.375 284.719 214.719 289.594 211.719C294.656 208.531 300.188 205.906 306.188 203.844C312.375 201.781 318.938 200.188 325.875 199.062C333 197.938 339.938 197.094 346.688 196.531C353.438 195.969 360 195.594 366.375 195.406C372.75 195.219 378.375 195.125 383.25 195.125C383.625 195.125 384.469 195.219 385.781 195.406C387.094 195.406 388.5 195.5 390 195.688C391.5 195.688 392.812 195.688 393.938 195.688C395.25 195.688 396.188 195.688 396.75 195.688C397.5 199.812 397.031 202.719 395.344 204.406C393.844 205.906 391.781 206.844 389.156 207.219C386.719 207.406 384.094 207.312 381.281 206.938C378.469 206.375 376.406 206.281 375.094 206.656C373.219 206.844 370.219 207.406 366.094 208.344C362.156 209.094 357.75 210.031 352.875 211.156C348 212.094 342.75 213.219 337.125 214.531C331.688 215.656 326.438 216.781 321.375 217.906C316.5 218.844 312.094 219.781 308.156 220.719C304.219 221.656 301.312 222.312 299.438 222.688C296.438 223.812 294.75 225.219 294.375 226.906C294 228.594 293.812 230.562 293.812 232.812C293.812 236.75 294 241.156 294.375 246.031C294.938 250.906 295.5 255.781 296.062 260.656C296.812 265.344 297.469 269.656 298.031 273.594C298.781 277.531 299.25 280.438 299.438 282.312C300.188 282.5 301.594 282.594 303.656 282.594C305.719 282.594 307.125 282.594 307.875 282.594C312.188 282.594 316.406 282.219 320.531 281.469C324.656 280.719 328.781 279.875 332.906 278.938C337.031 278 341.25 277.25 345.562 276.688C349.875 275.938 354.281 275.562 358.781 275.562V285.969C356.906 285.969 354.281 286.156 350.906 286.531C347.531 286.719 343.781 287.188 339.656 287.938C335.719 288.688 331.688 289.531 327.562 290.469C323.438 291.219 319.688 292.062 316.312 293C312.938 293.938 310.125 294.875 307.875 295.812C305.812 296.75 304.781 297.688 304.781 298.625V357.125C313.594 357.125 322.312 356.844 330.938 356.281C339.75 355.719 348.562 355.156 357.375 354.594C366.188 353.844 375 353.188 383.812 352.625C392.625 352.062 401.438 351.781 410.25 351.781C410.25 354.031 409.5 355.906 408 357.406C406.5 358.719 404.719 359.844 402.656 360.781C400.781 361.531 398.719 362.094 396.469 362.469C394.219 362.844 392.531 363.125 391.406 363.312C390.656 363.5 388.312 363.781 384.375 364.156C380.438 364.531 375.562 365.094 369.75 365.844C363.938 366.594 357.469 367.344 350.344 368.094C343.219 368.844 336.188 369.594 329.25 370.344C322.312 371.094 315.75 371.844 309.562 372.594C303.375 373.156 298.219 373.625 294.094 374C293.531 374.188 292.688 374.281 291.562 374.281C291.562 349.156 290.719 323.844 289.031 298.344C287.531 272.656 283.781 247.438 277.781 222.688ZM435.844 206.656C435.844 207.219 435.75 208.438 435.562 210.312C435.562 212.188 435.562 214.156 435.562 216.219C435.562 218.094 435.562 219.969 435.562 221.844C435.562 223.531 435.562 224.656 435.562 225.219C435.562 237.406 435.844 249.594 436.406 261.781C436.969 273.969 437.625 286.25 438.375 298.625C439.125 310.812 439.781 323.094 440.344 335.469C440.906 347.844 441.188 360.219 441.188 372.594L431.062 372.031C430.875 368.469 430.5 363.5 429.938 357.125C429.562 350.75 429 343.438 428.25 335.188C427.688 326.75 427.031 317.75 426.281 308.188C425.531 298.625 424.688 288.969 423.75 279.219C423 269.281 422.344 259.531 421.781 249.969C421.219 240.406 420.656 231.594 420.094 223.531C419.719 215.281 419.438 208.062 419.25 201.875C419.062 195.5 419.062 190.625 419.25 187.25C419.25 185 420.094 183.125 421.781 181.625C423.469 180.125 425.438 179.375 427.688 179.375C429.938 179.375 432.469 179.938 435.281 181.062C438.281 182 440.25 183.312 441.188 185L542.438 348.406C542.438 339.781 542.156 330.5 541.594 320.562C541.219 310.625 540.844 300.406 540.469 289.906C540.094 279.406 539.812 268.906 539.625 258.406C539.625 247.719 539.812 237.406 540.188 227.469C540.75 217.344 541.688 207.781 543 198.781C544.5 189.781 546.562 181.625 549.188 174.312C551.812 173.375 553.875 172.906 555.375 172.906C556.875 172.719 558 172.719 558.75 172.906C559.5 173.094 559.875 173.562 559.875 174.312C560.062 175.062 560.156 175.812 560.156 176.562C560.156 176.938 560.156 177.5 560.156 178.25C560.156 179 560.156 179.469 560.156 179.656C559.781 180.781 559.312 182.844 558.75 185.844C558.375 188.844 557.812 193.344 557.062 199.344C556.312 205.156 555.656 212.75 555.094 222.125C554.531 231.5 553.969 243.125 553.406 257C552.844 270.875 552.375 287.375 552 306.5C551.812 325.625 551.812 347.938 552 373.438L543.844 374L435.844 206.656ZM580.406 352.625C581.344 350.375 582.75 348.969 584.625 348.406C586.688 347.844 588.844 349.25 591.094 352.625C591.094 353 591.938 353.562 593.625 354.312C595.5 354.875 597.75 355.625 600.375 356.562C603.188 357.312 606.375 358.156 609.938 359.094C613.688 359.844 617.344 360.594 620.906 361.344C624.469 361.906 627.938 362.469 631.312 363.031C634.688 363.406 637.594 363.594 640.031 363.594C646.406 363.594 652.219 362.281 657.469 359.656C662.906 356.844 667.5 353.281 671.25 348.969C675.188 344.656 678.188 339.781 680.25 334.344C682.312 328.719 683.344 323 683.344 317.188C683.344 315.5 683.062 312.594 682.5 308.469C681.938 304.156 681 299.938 679.688 295.812C678.375 291.5 676.594 287.656 674.344 284.281C672.281 280.906 669.75 279.219 666.75 279.219C647.25 281.469 631.219 282.406 618.656 282.031C606.281 281.469 596.438 279.969 589.125 277.531C581.812 275.094 576.656 271.812 573.656 267.688C570.844 263.375 569.344 258.5 569.156 253.062C569.156 246.312 570.844 239.844 574.219 233.656C577.594 227.281 581.906 221.656 587.156 216.781C592.406 211.906 598.219 208.062 604.594 205.25C611.156 202.25 617.625 200.75 624 200.75C629.25 200.75 634.688 201.406 640.312 202.719C646.125 204.031 651.469 206.094 656.344 208.906C661.219 211.531 665.156 215.094 668.156 219.594C671.344 223.906 672.938 229.156 672.938 235.344C668.438 235.344 664.312 234.125 660.562 231.688C656.812 229.062 653.062 226.344 649.312 223.531C645.562 220.719 641.625 218.094 637.5 215.656C633.375 213.031 628.594 211.719 623.156 211.719C618.656 211.719 614.062 212.844 609.375 215.094C604.875 217.344 600.75 220.25 597 223.812C593.438 227.375 590.438 231.406 588 235.906C585.75 240.219 584.625 244.719 584.625 249.406C584.625 251.281 584.625 253.344 584.625 255.594C584.812 257.656 585.281 259.719 586.031 261.781C586.781 263.656 587.906 265.25 589.406 266.562C591.094 267.875 593.438 268.531 596.438 268.531H672.094C675.281 268.531 678 269.562 680.25 271.625C682.688 273.5 684.656 275.938 686.156 278.938C687.844 281.938 689.156 285.312 690.094 289.062C691.219 292.812 692.062 296.469 692.625 300.031C693.375 303.594 693.844 306.969 694.031 310.156C694.219 313.156 694.312 315.5 694.312 317.188C694.312 324.5 693.281 331.438 691.219 338C689.156 344.375 686.062 350.188 681.938 355.438C677.812 360.5 672.656 364.719 666.469 368.094C660.281 371.281 653.156 373.25 645.094 374C641.156 374.375 636 374.281 629.625 373.719C623.438 373.156 617.156 372.125 610.781 370.625C604.406 368.938 598.406 366.688 592.781 363.875C587.156 360.875 583.031 357.125 580.406 352.625ZM707.25 222.688C710.25 218.375 714.188 214.719 719.062 211.719C724.125 208.531 729.656 205.906 735.656 203.844C741.844 201.781 748.406 200.188 755.344 199.062C762.469 197.938 769.406 197.094 776.156 196.531C782.906 195.969 789.469 195.594 795.844 195.406C802.219 195.219 807.844 195.125 812.719 195.125C813.094 195.125 813.938 195.219 815.25 195.406C816.562 195.406 817.969 195.5 819.469 195.688C820.969 195.688 822.281 195.688 823.406 195.688C824.719 195.688 825.656 195.688 826.219 195.688C826.969 199.812 826.5 202.719 824.812 204.406C823.312 205.906 821.25 206.844 818.625 207.219C816.188 207.406 813.562 207.312 810.75 206.938C807.938 206.375 805.875 206.281 804.562 206.656C802.688 206.844 799.688 207.406 795.562 208.344C791.625 209.094 787.219 210.031 782.344 211.156C777.469 212.094 772.219 213.219 766.594 214.531C761.156 215.656 755.906 216.781 750.844 217.906C745.969 218.844 741.562 219.781 737.625 220.719C733.688 221.656 730.781 222.312 728.906 222.688C725.906 223.812 724.219 225.219 723.844 226.906C723.469 228.594 723.281 230.562 723.281 232.812C723.281 236.75 723.469 241.156 723.844 246.031C724.406 250.906 724.969 255.781 725.531 260.656C726.281 265.344 726.938 269.656 727.5 273.594C728.25 277.531 728.719 280.438 728.906 282.312C729.656 282.5 731.062 282.594 733.125 282.594C735.188 282.594 736.594 282.594 737.344 282.594C741.656 282.594 745.875 282.219 750 281.469C754.125 280.719 758.25 279.875 762.375 278.938C766.5 278 770.719 277.25 775.031 276.688C779.344 275.938 783.75 275.562 788.25 275.562V285.969C786.375 285.969 783.75 286.156 780.375 286.531C777 286.719 773.25 287.188 769.125 287.938C765.188 288.688 761.156 289.531 757.031 290.469C752.906 291.219 749.156 292.062 745.781 293C742.406 293.938 739.594 294.875 737.344 295.812C735.281 296.75 734.25 297.688 734.25 298.625V357.125C743.062 357.125 751.781 356.844 760.406 356.281C769.219 355.719 778.031 355.156 786.844 354.594C795.656 353.844 804.469 353.188 813.281 352.625C822.094 352.062 830.906 351.781 839.719 351.781C839.719 354.031 838.969 355.906 837.469 357.406C835.969 358.719 834.188 359.844 832.125 360.781C830.25 361.531 828.188 362.094 825.938 362.469C823.688 362.844 822 363.125 820.875 363.312C820.125 363.5 817.781 363.781 813.844 364.156C809.906 364.531 805.031 365.094 799.219 365.844C793.406 366.594 786.938 367.344 779.812 368.094C772.688 368.844 765.656 369.594 758.719 370.344C751.781 371.094 745.219 371.844 739.031 372.594C732.844 373.156 727.688 373.625 723.562 374C723 374.188 722.156 374.281 721.031 374.281C721.031 349.156 720.188 323.844 718.5 298.344C717 272.656 713.25 247.438 707.25 222.688ZM865.312 206.656C865.312 207.219 865.219 208.438 865.031 210.312C865.031 212.188 865.031 214.156 865.031 216.219C865.031 218.094 865.031 219.969 865.031 221.844C865.031 223.531 865.031 224.656 865.031 225.219C865.031 237.406 865.312 249.594 865.875 261.781C866.438 273.969 867.094 286.25 867.844 298.625C868.594 310.812 869.25 323.094 869.812 335.469C870.375 347.844 870.656 360.219 870.656 372.594L860.531 372.031C860.344 368.469 859.969 363.5 859.406 357.125C859.031 350.75 858.469 343.438 857.719 335.188C857.156 326.75 856.5 317.75 855.75 308.188C855 298.625 854.156 288.969 853.219 279.219C852.469 269.281 851.812 259.531 851.25 249.969C850.688 240.406 850.125 231.594 849.562 223.531C849.188 215.281 848.906 208.062 848.719 201.875C848.531 195.5 848.531 190.625 848.719 187.25C848.719 185 849.562 183.125 851.25 181.625C852.938 180.125 854.906 179.375 857.156 179.375C859.406 179.375 861.938 179.938 864.75 181.062C867.75 182 869.719 183.312 870.656 185L971.906 348.406C971.906 339.781 971.625 330.5 971.062 320.562C970.688 310.625 970.312 300.406 969.938 289.906C969.562 279.406 969.281 268.906 969.094 258.406C969.094 247.719 969.281 237.406 969.656 227.469C970.219 217.344 971.156 207.781 972.469 198.781C973.969 189.781 976.031 181.625 978.656 174.312C981.281 173.375 983.344 172.906 984.844 172.906C986.344 172.719 987.469 172.719 988.219 172.906C988.969 173.094 989.344 173.562 989.344 174.312C989.531 175.062 989.625 175.812 989.625 176.562C989.625 176.938 989.625 177.5 989.625 178.25C989.625 179 989.625 179.469 989.625 179.656C989.25 180.781 988.781 182.844 988.219 185.844C987.844 188.844 987.281 193.344 986.531 199.344C985.781 205.156 985.125 212.75 984.562 222.125C984 231.5 983.438 243.125 982.875 257C982.312 270.875 981.844 287.375 981.469 306.5C981.281 325.625 981.281 347.938 981.469 373.438L973.312 374L865.312 206.656ZM1167.66 298.625H1156.97L1129.97 244.625V368.656L1117.59 370.344C1117.22 363.781 1116.84 355.531 1116.47 345.594C1116.28 335.656 1116 324.969 1115.62 313.531C1115.44 301.906 1115.25 290 1115.06 277.812C1114.88 265.625 1114.69 253.906 1114.5 242.656C1114.31 231.406 1114.03 221.094 1113.66 211.719C1113.47 202.344 1113.19 194.75 1112.81 188.938C1114.12 188.938 1115.34 188.844 1116.47 188.656C1117.78 188.469 1118.91 188.375 1119.84 188.375C1120.78 188.188 1121.62 188.281 1122.38 188.656C1123.12 189.031 1123.78 189.875 1124.34 191.188L1162.31 276.688L1194.66 195.688C1195.03 194.75 1195.69 194 1196.62 193.438C1197.75 192.688 1198.88 192.031 1200 191.469C1201.31 190.906 1202.62 190.531 1203.94 190.344C1205.25 189.969 1206.38 189.781 1207.31 189.781C1207.5 189.781 1207.59 190.062 1207.59 190.625C1207.59 191.188 1207.78 193.156 1208.16 196.531C1208.53 199.906 1209.09 205.25 1209.84 212.562C1210.78 219.688 1212.19 229.906 1214.06 243.219C1215.94 256.344 1218.28 273.125 1221.09 293.562C1224.09 313.812 1227.84 338.844 1232.34 368.656C1231.59 370.344 1230.56 371.469 1229.25 372.031C1228.12 372.594 1227 372.781 1225.88 372.594C1224.94 372.406 1224 372.031 1223.06 371.469C1222.31 370.719 1221.84 369.781 1221.66 368.656L1200.28 217.625L1167.66 298.625ZM1241.91 222.688C1244.91 218.375 1248.84 214.719 1253.72 211.719C1258.78 208.531 1264.31 205.906 1270.31 203.844C1276.5 201.781 1283.06 200.188 1290 199.062C1297.12 197.938 1304.06 197.094 1310.81 196.531C1317.56 195.969 1324.12 195.594 1330.5 195.406C1336.88 195.219 1342.5 195.125 1347.38 195.125C1347.75 195.125 1348.59 195.219 1349.91 195.406C1351.22 195.406 1352.62 195.5 1354.12 195.688C1355.62 195.688 1356.94 195.688 1358.06 195.688C1359.38 195.688 1360.31 195.688 1360.88 195.688C1361.62 199.812 1361.16 202.719 1359.47 204.406C1357.97 205.906 1355.91 206.844 1353.28 207.219C1350.84 207.406 1348.22 207.312 1345.41 206.938C1342.59 206.375 1340.53 206.281 1339.22 206.656C1337.34 206.844 1334.34 207.406 1330.22 208.344C1326.28 209.094 1321.88 210.031 1317 211.156C1312.12 212.094 1306.88 213.219 1301.25 214.531C1295.81 215.656 1290.56 216.781 1285.5 217.906C1280.62 218.844 1276.22 219.781 1272.28 220.719C1268.34 221.656 1265.44 222.312 1263.56 222.688C1260.56 223.812 1258.88 225.219 1258.5 226.906C1258.12 228.594 1257.94 230.562 1257.94 232.812C1257.94 236.75 1258.12 241.156 1258.5 246.031C1259.06 250.906 1259.62 255.781 1260.19 260.656C1260.94 265.344 1261.59 269.656 1262.16 273.594C1262.91 277.531 1263.38 280.438 1263.56 282.312C1264.31 282.5 1265.72 282.594 1267.78 282.594C1269.84 282.594 1271.25 282.594 1272 282.594C1276.31 282.594 1280.53 282.219 1284.66 281.469C1288.78 280.719 1292.91 279.875 1297.03 278.938C1301.16 278 1305.38 277.25 1309.69 276.688C1314 275.938 1318.41 275.562 1322.91 275.562V285.969C1321.03 285.969 1318.41 286.156 1315.03 286.531C1311.66 286.719 1307.91 287.188 1303.78 287.938C1299.84 288.688 1295.81 289.531 1291.69 290.469C1287.56 291.219 1283.81 292.062 1280.44 293C1277.06 293.938 1274.25 294.875 1272 295.812C1269.94 296.75 1268.91 297.688 1268.91 298.625V357.125C1277.72 357.125 1286.44 356.844 1295.06 356.281C1303.88 355.719 1312.69 355.156 1321.5 354.594C1330.31 353.844 1339.12 353.188 1347.94 352.625C1356.75 352.062 1365.56 351.781 1374.38 351.781C1374.38 354.031 1373.62 355.906 1372.12 357.406C1370.62 358.719 1368.84 359.844 1366.78 360.781C1364.91 361.531 1362.84 362.094 1360.59 362.469C1358.34 362.844 1356.66 363.125 1355.53 363.312C1354.78 363.5 1352.44 363.781 1348.5 364.156C1344.56 364.531 1339.69 365.094 1333.88 365.844C1328.06 366.594 1321.59 367.344 1314.47 368.094C1307.34 368.844 1300.31 369.594 1293.38 370.344C1286.44 371.094 1279.88 371.844 1273.69 372.594C1267.5 373.156 1262.34 373.625 1258.22 374C1257.66 374.188 1256.81 374.281 1255.69 374.281C1255.69 349.156 1254.84 323.844 1253.16 298.344C1251.66 272.656 1247.91 247.438 1241.91 222.688ZM1383.66 222.688C1386.66 218.375 1390.59 214.719 1395.47 211.719C1400.53 208.531 1406.06 205.906 1412.06 203.844C1418.25 201.781 1424.81 200.188 1431.75 199.062C1438.88 197.938 1445.81 197.094 1452.56 196.531C1459.31 195.969 1465.88 195.594 1472.25 195.406C1478.62 195.219 1484.25 195.125 1489.12 195.125C1489.5 195.125 1490.34 195.219 1491.66 195.406C1492.97 195.406 1494.38 195.5 1495.88 195.688C1497.38 195.688 1498.69 195.688 1499.81 195.688C1501.12 195.688 1502.06 195.688 1502.62 195.688C1503.38 199.812 1502.91 202.719 1501.22 204.406C1499.72 205.906 1497.66 206.844 1495.03 207.219C1492.59 207.406 1489.97 207.312 1487.16 206.938C1484.34 206.375 1482.28 206.281 1480.97 206.656C1479.09 206.844 1476.09 207.406 1471.97 208.344C1468.03 209.094 1463.62 210.031 1458.75 211.156C1453.88 212.094 1448.62 213.219 1443 214.531C1437.56 215.656 1432.31 216.781 1427.25 217.906C1422.38 218.844 1417.97 219.781 1414.03 220.719C1410.09 221.656 1407.19 222.312 1405.31 222.688C1402.31 223.812 1400.62 225.219 1400.25 226.906C1399.88 228.594 1399.69 230.562 1399.69 232.812C1399.69 236.75 1399.88 241.156 1400.25 246.031C1400.81 250.906 1401.38 255.781 1401.94 260.656C1402.69 265.344 1403.34 269.656 1403.91 273.594C1404.66 277.531 1405.12 280.438 1405.31 282.312C1406.06 282.5 1407.47 282.594 1409.53 282.594C1411.59 282.594 1413 282.594 1413.75 282.594C1418.06 282.594 1422.28 282.219 1426.41 281.469C1430.53 280.719 1434.66 279.875 1438.78 278.938C1442.91 278 1447.12 277.25 1451.44 276.688C1455.75 275.938 1460.16 275.562 1464.66 275.562V285.969C1462.78 285.969 1460.16 286.156 1456.78 286.531C1453.41 286.719 1449.66 287.188 1445.53 287.938C1441.59 288.688 1437.56 289.531 1433.44 290.469C1429.31 291.219 1425.56 292.062 1422.19 293C1418.81 293.938 1416 294.875 1413.75 295.812C1411.69 296.75 1410.66 297.688 1410.66 298.625V357.125C1419.47 357.125 1428.19 356.844 1436.81 356.281C1445.62 355.719 1454.44 355.156 1463.25 354.594C1472.06 353.844 1480.88 353.188 1489.69 352.625C1498.5 352.062 1507.31 351.781 1516.12 351.781C1516.12 354.031 1515.38 355.906 1513.88 357.406C1512.38 358.719 1510.59 359.844 1508.53 360.781C1506.66 361.531 1504.59 362.094 1502.34 362.469C1500.09 362.844 1498.41 363.125 1497.28 363.312C1496.53 363.5 1494.19 363.781 1490.25 364.156C1486.31 364.531 1481.44 365.094 1475.62 365.844C1469.81 366.594 1463.34 367.344 1456.22 368.094C1449.09 368.844 1442.06 369.594 1435.12 370.344C1428.19 371.094 1421.62 371.844 1415.44 372.594C1409.25 373.156 1404.09 373.625 1399.97 374C1399.41 374.188 1398.56 374.281 1397.44 374.281C1397.44 349.156 1396.59 323.844 1394.91 298.344C1393.41 272.656 1389.66 247.438 1383.66 222.688ZM1522.31 221.281L1526.81 206.656C1527 206.469 1528.41 206.281 1531.03 206.094C1533.84 205.719 1537.5 205.344 1542 204.969C1546.5 204.406 1551.56 203.844 1557.19 203.281C1562.81 202.719 1568.53 202.156 1574.34 201.594C1580.34 201.031 1586.16 200.469 1591.78 199.906C1597.59 199.344 1602.94 198.781 1607.81 198.219C1607.81 198.219 1608.66 198.219 1610.34 198.219C1612.03 198.219 1613.91 198.219 1615.97 198.219C1618.03 198.219 1620 198.219 1621.88 198.219C1623.75 198.219 1624.97 198.219 1625.53 198.219C1630.03 198.219 1633.12 199.062 1634.81 200.75C1636.5 202.438 1637.34 206.094 1637.34 211.719L1586.16 217.625C1585.78 229.438 1585.97 241.812 1586.72 254.75C1587.47 267.688 1588.41 280.812 1589.53 294.125C1590.66 307.25 1591.69 320.281 1592.62 333.219C1593.75 346.156 1594.31 358.531 1594.31 370.344C1594.31 372.031 1593.75 373.25 1592.62 374C1591.69 374.562 1590.47 374.938 1588.97 375.125C1587.66 375.312 1586.25 375.219 1584.75 374.844C1583.25 374.656 1581.94 374.375 1580.81 374C1580.25 371.562 1579.69 367.344 1579.12 361.344C1578.56 355.344 1578 348.312 1577.44 340.25C1576.88 332.188 1576.31 323.469 1575.75 314.094C1575.19 304.719 1574.62 295.344 1574.06 285.969C1573.5 276.594 1572.94 267.688 1572.38 259.25C1571.81 250.625 1571.34 243.125 1570.97 236.75C1570.59 230.188 1570.22 225.125 1569.84 221.562C1569.66 218 1569.47 216.688 1569.28 217.625L1522.31 221.281ZM1741.41 303.688C1733.91 322.625 1726.5 337.25 1719.19 347.562C1711.88 357.875 1704.75 364.812 1697.81 368.375C1690.88 371.75 1684.31 372.125 1678.12 369.5C1671.94 366.875 1666.22 362.094 1660.97 355.156C1655.91 348.031 1651.5 339.125 1647.75 328.438C1644.19 317.75 1641.28 306.031 1639.03 293.281C1636.97 280.531 1635.84 267.219 1635.66 253.344C1635.66 239.281 1636.78 225.5 1639.03 212L1650 213.125C1647.94 237.125 1647.66 258.031 1649.16 275.844C1650.84 293.469 1653.47 308.188 1657.03 320C1660.59 331.812 1664.72 340.812 1669.41 347C1674.09 353.188 1678.59 356.75 1682.91 357.688C1689.28 357.688 1694.91 356 1699.78 352.625C1704.84 349.25 1709.25 344.844 1713 339.406C1716.94 333.969 1720.22 327.781 1722.84 320.844C1725.66 313.906 1727.91 306.875 1729.59 299.75C1731.28 292.625 1732.5 285.781 1733.25 279.219C1734 272.469 1734.38 266.656 1734.38 261.781C1734.38 255.406 1734.19 249.781 1733.81 244.906C1733.44 239.844 1732.78 234.875 1731.84 230C1731.09 225.125 1730.16 220.156 1729.03 215.094C1728.09 209.844 1726.97 203.844 1725.66 197.094L1739.44 186.969C1743.75 214.156 1747.41 237.5 1750.41 257C1753.59 276.312 1756.31 292.531 1758.56 305.656C1760.81 318.594 1762.59 329 1763.91 336.875C1765.22 344.562 1766.25 350.656 1767 355.156C1767.94 359.469 1768.5 362.562 1768.69 364.438C1769.06 366.125 1769.25 367.531 1769.25 368.656H1757.72L1741.41 303.688ZM1780.5 219.312C1780.5 213.312 1782.75 208.156 1787.25 203.844C1791.94 199.344 1797.56 195.781 1804.12 193.156C1810.69 190.344 1817.53 188.281 1824.66 186.969C1831.78 185.469 1837.88 184.719 1842.94 184.719C1848 184.719 1853.06 185.562 1858.12 187.25C1863.38 188.938 1867.97 191.375 1871.91 194.562C1875.84 197.562 1878.84 201.5 1880.91 206.375C1883.16 211.062 1883.91 216.5 1883.16 222.688C1882.22 232.25 1879.03 240.688 1873.59 248C1868.34 255.312 1861.78 261.5 1853.91 266.562C1846.22 271.438 1837.78 275.188 1828.59 277.812C1819.59 280.25 1810.88 281.469 1802.44 281.469C1802.44 288.406 1802.72 295.344 1803.28 302.281C1803.84 309.031 1804.41 315.875 1804.97 322.812C1805.72 329.75 1806.38 336.688 1806.94 343.625C1807.5 350.375 1807.78 357.219 1807.78 364.156C1807.78 366.219 1807.59 368.188 1807.22 370.062C1806.84 371.75 1805.16 373.062 1802.16 374L1796.53 368.656C1796.53 368.469 1796.25 365.844 1795.69 360.781C1795.12 355.719 1794.28 349.156 1793.16 341.094C1792.22 333.031 1791.09 323.938 1789.78 313.812C1788.66 303.5 1787.53 293.188 1786.41 282.875C1785.28 272.562 1784.16 262.625 1783.03 253.062C1782.09 243.5 1781.25 235.25 1780.5 228.312C1780.5 228.125 1780.5 227.656 1780.5 226.906C1780.5 226.156 1780.5 225.312 1780.5 224.375C1780.5 223.438 1780.5 222.5 1780.5 221.562C1780.5 220.625 1780.5 219.875 1780.5 219.312ZM1796.25 229.438C1796.25 233.375 1796.25 237.031 1796.25 240.406C1796.44 243.781 1796.72 247.062 1797.09 250.25C1797.66 253.438 1798.31 256.719 1799.06 260.094C1799.81 263.469 1800.84 267.312 1802.16 271.625C1807.97 270.688 1814.91 268.906 1822.97 266.281C1831.03 263.656 1838.72 260.094 1846.03 255.594C1853.53 251.094 1859.81 245.938 1864.88 240.125C1869.94 234.125 1872.47 227.469 1872.47 220.156C1872.47 216.219 1871.53 212.75 1869.66 209.75C1867.78 206.562 1865.34 203.938 1862.34 201.875C1859.53 199.812 1856.34 198.219 1852.78 197.094C1849.22 195.969 1845.75 195.406 1842.38 195.406C1836.94 195.406 1831.41 196.062 1825.78 197.375C1820.34 198.688 1815.38 200.75 1810.88 203.562C1806.56 206.375 1803 209.938 1800.19 214.25C1797.56 218.562 1796.25 223.625 1796.25 229.438Z" fill="#4A4A4A"/>
</svg>
