<svg width="145" height="145" viewBox="0 0 145 145" fill="none" xmlns="http://www.w3.org/2000/svg">
<circle cx="72.5" cy="72.5" r="72.5" fill="#F2BF27"/>
<path d="M7.59766 92.9453C7.59766 91.7604 7.64323 90.7122 7.73438 89.8008C7.91667 88.8893 8.73698 88.2057 10.1953 87.75C11.7448 88.388 12.8841 89.3906 13.6133 90.7578C14.3424 92.0339 14.9349 93.4922 15.3906 95.1328C15.9375 96.7734 16.3932 98.4596 16.7578 100.191C17.2135 101.923 17.8516 103.473 18.6719 104.84C19.4922 106.207 20.6771 107.301 22.2266 108.121C23.776 108.85 25.8724 109.078 28.5156 108.805C33.2552 108.349 37.2656 107.529 40.5469 106.344C43.8281 105.068 46.5169 103.518 48.6133 101.695C50.8008 99.8724 52.487 97.7305 53.6719 95.2695C54.9479 92.8086 55.8594 90.0742 56.4062 87.0664C57.0443 84.0586 57.4089 80.8229 57.5 77.3594C57.6823 73.8047 57.7734 70.0221 57.7734 66.0117C57.7734 61.9102 57.4544 57.8542 56.8164 53.8438C56.2695 49.8333 55.6315 45.8685 54.9023 41.9492C54.2643 37.9388 53.6263 33.974 52.9883 30.0547C52.4414 26.0443 52.168 22.0339 52.168 18.0234C52.168 17.5677 52.168 17.2031 52.168 16.9297C52.2591 16.5651 52.487 16.3372 52.8516 16.2461C53.3073 16.0638 53.8542 16.0182 54.4922 16.1094C55.2214 16.2005 56.224 16.474 57.5 16.9297C57.5911 17.0208 57.7734 17.6589 58.0469 18.8438C58.4115 19.9375 58.776 21.3503 59.1406 23.082C59.5052 24.8138 59.8698 26.7279 60.2344 28.8242C60.599 30.9206 60.918 33.0169 61.1914 35.1133C61.556 37.2096 61.875 39.2148 62.1484 41.1289C62.4219 42.9518 62.6042 44.5013 62.6953 45.7773C63.0599 51.2461 63.5156 56.806 64.0625 62.457C64.6094 68.1081 64.8372 73.5768 64.7461 78.8633C64.6549 84.1497 64.0625 89.0716 62.9688 93.6289C61.9661 98.0951 60.0977 101.969 57.3633 105.25C54.6289 108.44 50.8464 110.901 46.0156 112.633C41.1849 114.273 34.987 114.82 27.4219 114.273C24.6875 114.273 22.0898 113.681 19.6289 112.496C17.2591 111.22 15.1628 109.579 13.3398 107.574C11.6081 105.569 10.1953 103.29 9.10156 100.738C8.09896 98.1862 7.59766 95.5885 7.59766 92.9453ZM98.1055 77.3594H92.9102L79.7852 51.1094V111.402L73.7695 112.223C73.5872 109.033 73.4049 105.022 73.2227 100.191C73.1315 95.3607 72.9948 90.1654 72.8125 84.6055C72.7214 78.9544 72.6302 73.1667 72.5391 67.2422C72.4479 61.3177 72.3568 55.6211 72.2656 50.1523C72.1745 44.6836 72.0378 39.6706 71.8555 35.1133C71.7643 30.556 71.6276 26.8646 71.4453 24.0391C72.0833 24.0391 72.6758 23.9935 73.2227 23.9023C73.8607 23.8112 74.4076 23.7656 74.8633 23.7656C75.319 23.6745 75.7292 23.7201 76.0938 23.9023C76.4583 24.0846 76.7773 24.4948 77.0508 25.1328L95.5078 66.6953L111.23 27.3203C111.413 26.8646 111.732 26.5 112.188 26.2266C112.734 25.862 113.281 25.543 113.828 25.2695C114.466 24.9961 115.104 24.8138 115.742 24.7227C116.38 24.5404 116.927 24.4492 117.383 24.4492C117.474 24.4492 117.52 24.5859 117.52 24.8594C117.52 25.1328 117.611 26.0898 117.793 27.7305C117.975 29.3711 118.249 31.9688 118.613 35.5234C119.069 38.987 119.753 43.9544 120.664 50.4258C121.576 56.806 122.715 64.9635 124.082 74.8984C125.54 84.7422 127.363 96.9102 129.551 111.402C129.186 112.223 128.685 112.77 128.047 113.043C127.5 113.316 126.953 113.408 126.406 113.316C125.951 113.225 125.495 113.043 125.039 112.77C124.674 112.405 124.447 111.949 124.355 111.402L113.965 37.9844L98.1055 77.3594Z" fill="white"/>
</svg>
